<svg xmlns="http://www.w3.org/2000/svg" xml:space="preserve" fill-rule="evenodd" stroke-linecap="round" stroke-linejoin="round" clip-rule="evenodd" viewBox="0 0 40 40">
	<circle cx="290" cy="290" r="27" fill="#3e95ff" transform="scale(.069)"/>
	<g fill="none" stroke="#3e95ff" stroke-width="2.54265">
		<path d="M15.5939 22.5436a5.06 5.06 0 0 1-.6828-2.5441c0-2.8056 2.2828-5.0884 5.0884-5.0884a5.054 5.054 0 0 1 2.5441.6828"/>
		<path d="M20.0001 29.5843c-5.2848 0-9.5842-4.2993-9.5842-9.5842s4.2994-9.5842 9.5842-9.5842c5.2849 0 9.5842 4.2994 9.5842 9.5842 0 5.2849-4.2993 9.5842-9.5842 9.5842"/>
		<path d="M7.8118 27.0367c-1.2007-2.071-1.8883-4.4752-1.8883-7.0366C5.9235 12.2387 12.238 5.9235 20 5.9235c2.5614 0 4.9656.6876 7.0366 1.8883m6.5594 15.8422c-.9773 3.6324-3.3752 6.689-6.5587 8.5345"/>
	</g>
</svg>
